<svg width="445" height="134" viewBox="0 0 445 134" fill="none" xmlns="http://www.w3.org/2000/svg">
<g clip-path="url(#clip0_12_2)">
<path d="M163.57 60.06H156.86C156.77 59.37 156.59 58.75 156.31 58.2C156.03 57.65 155.67 57.17 155.21 56.78C154.75 56.39 154.21 56.09 153.59 55.88C152.97 55.67 152.29 55.56 151.54 55.56C150.21 55.56 149.06 55.89 148.09 56.54C147.13 57.19 146.4 58.14 145.88 59.37C145.37 60.6 145.12 62.1 145.12 63.85C145.12 65.6 145.38 67.2 145.9 68.44C146.43 69.67 147.17 70.59 148.11 71.22C149.07 71.84 150.2 72.15 151.5 72.15C152.23 72.15 152.9 72.06 153.5 71.87C154.11 71.68 154.64 71.41 155.1 71.05C155.57 70.68 155.95 70.24 156.24 69.72C156.54 69.19 156.75 68.6 156.87 67.94L163.58 67.98C163.46 69.2 163.11 70.39 162.52 71.58C161.94 72.76 161.14 73.84 160.12 74.81C159.1 75.78 157.86 76.55 156.39 77.12C154.93 77.69 153.26 77.98 151.37 77.98C148.88 77.98 146.66 77.43 144.69 76.34C142.73 75.24 141.18 73.64 140.05 71.54C138.91 69.44 138.35 66.88 138.35 63.87C138.35 60.86 138.93 58.28 140.08 56.18C141.23 54.08 142.79 52.48 144.76 51.39C146.73 50.3 148.93 49.75 151.37 49.75C153.03 49.75 154.57 49.98 155.99 50.45C157.4 50.91 158.65 51.58 159.72 52.46C160.79 53.34 161.67 54.41 162.34 55.69C163.01 56.97 163.43 58.43 163.59 60.08L163.57 60.06ZM193.3 63.84C193.3 66.86 192.72 69.43 191.56 71.53C190.4 73.63 188.82 75.23 186.84 76.32C184.86 77.41 182.65 77.96 180.19 77.96C177.73 77.96 175.5 77.41 173.52 76.31C171.54 75.21 169.97 73.61 168.81 71.52C167.66 69.42 167.08 66.86 167.08 63.85C167.08 60.84 167.66 58.26 168.81 56.16C169.97 54.06 171.54 52.46 173.52 51.37C175.5 50.28 177.72 49.73 180.19 49.73C182.66 49.73 184.87 50.28 186.84 51.37C188.83 52.46 190.4 54.06 191.56 56.16C192.72 58.26 193.3 60.82 193.3 63.85V63.84ZM186.51 63.84C186.51 62.05 186.26 60.54 185.75 59.31C185.25 58.08 184.52 57.14 183.58 56.51C182.64 55.88 181.51 55.56 180.19 55.56C178.87 55.56 177.74 55.88 176.8 56.51C175.85 57.15 175.12 58.08 174.61 59.31C174.11 60.54 173.86 62.06 173.86 63.84C173.86 65.62 174.11 67.14 174.61 68.37C175.12 69.6 175.85 70.54 176.8 71.17C177.75 71.81 178.88 72.12 180.19 72.12C181.5 72.12 182.65 71.8 183.58 71.17C184.53 70.53 185.25 69.6 185.75 68.37C186.26 67.14 186.51 65.62 186.51 63.84ZM207.33 77.58H197.17V50.1H207.31C210.11 50.1 212.52 50.65 214.54 51.75C216.57 52.84 218.14 54.42 219.24 56.47C220.34 58.52 220.89 60.97 220.89 63.82C220.89 66.67 220.34 69.14 219.24 71.2C218.15 73.26 216.59 74.84 214.56 75.94C212.53 77.03 210.12 77.58 207.33 77.58ZM203.81 71.92H207.07C208.61 71.92 209.91 71.66 210.97 71.14C212.04 70.61 212.85 69.76 213.4 68.58C213.95 67.39 214.23 65.81 214.23 63.83C214.23 61.85 213.95 60.28 213.4 59.11C212.85 57.93 212.03 57.08 210.94 56.56C209.87 56.03 208.54 55.77 206.97 55.77H203.8V71.92H203.81ZM224.77 77.58V50.1H243.93V55.49H231.41V61.12H242.95V66.53H231.41V72.18H243.93V77.57H224.77V77.58ZM248.09 77.58V50.1H259.55C261.61 50.1 263.33 50.39 264.72 50.97C266.12 51.55 267.16 52.37 267.86 53.41C268.57 54.46 268.92 55.67 268.92 57.05C268.92 58.1 268.7 59.03 268.26 59.85C267.82 60.66 267.22 61.34 266.45 61.88C265.68 62.42 264.79 62.79 263.78 63.01V63.28C264.89 63.33 265.91 63.63 266.85 64.18C267.8 64.73 268.56 65.49 269.13 66.46C269.7 67.43 269.99 68.57 269.99 69.89C269.99 71.37 269.61 72.69 268.86 73.85C268.11 75 267.02 75.92 265.6 76.59C264.18 77.25 262.45 77.58 260.42 77.58H248.09ZM254.73 72.23H258.84C260.28 72.23 261.34 71.96 262.02 71.41C262.71 70.86 263.05 70.1 263.05 69.13C263.05 68.42 262.88 67.82 262.55 67.31C262.22 66.79 261.75 66.39 261.14 66.12C260.53 65.83 259.8 65.69 258.95 65.69H254.72V72.24L254.73 72.23ZM254.73 61.4H258.41C259.13 61.4 259.78 61.28 260.34 61.04C260.9 60.8 261.34 60.45 261.65 59.99C261.97 59.53 262.13 58.98 262.13 58.34C262.13 57.42 261.8 56.69 261.15 56.17C260.5 55.64 259.62 55.38 258.51 55.38H254.73V61.4ZM273.18 77.58V50.1H284.53C286.59 50.1 288.36 50.47 289.86 51.21C291.36 51.94 292.52 53 293.33 54.38C294.14 55.75 294.55 57.37 294.55 59.25C294.55 61.13 294.13 62.77 293.3 64.11C292.47 65.43 291.29 66.44 289.76 67.14C288.23 67.83 286.42 68.17 284.33 68.17H277.15V62.94H283.09C284.09 62.94 284.93 62.81 285.6 62.55C286.28 62.28 286.79 61.88 287.14 61.34C287.49 60.79 287.66 60.1 287.66 59.25C287.66 58.4 287.49 57.7 287.14 57.14C286.79 56.58 286.28 56.16 285.6 55.88C284.92 55.59 284.08 55.45 283.09 55.45H279.82V77.57H273.18V77.58ZM288.65 65.02L295.49 77.58H288.25L281.54 65.02H288.65ZM298.2 77.58V50.1H317.36V55.49H304.84V61.12H316.38V66.53H304.84V72.18H317.36V77.57H298.2V77.58ZM327.46 77.58H320.32L329.59 50.1H338.43L347.7 77.58H340.56L334.11 57.03H333.9L327.46 77.58ZM326.51 66.77H341.43V71.81H326.51V66.77ZM350.67 77.58V50.1H357.31V61.72H357.67L366.75 50.1H374.57L364.83 62.36L374.75 77.57H366.81L359.97 66.77L357.31 70.12V77.57H350.67V77.58ZM384.93 73.02V67.84L396.19 50.1H400.79V57.13H398.12L391.53 67.57V67.78H407.83V73.01H384.93V73.02ZM398.2 77.58V71.44L398.33 69.17V50.1H404.54V77.58H398.19H398.2ZM414.8 77.97C413.83 77.97 413.01 77.63 412.32 76.95C411.64 76.27 411.31 75.45 411.32 74.48C411.32 73.53 411.64 72.72 412.32 72.05C413.01 71.37 413.84 71.03 414.8 71.03C415.71 71.03 416.52 71.37 417.22 72.05C417.93 72.72 418.28 73.53 418.29 74.48C418.29 75.12 418.11 75.71 417.78 76.24C417.46 76.77 417.03 77.19 416.5 77.5C415.98 77.81 415.41 77.97 414.8 77.97ZM432.75 78.25C430.35 78.25 428.29 77.68 426.55 76.55C424.81 75.41 423.48 73.76 422.54 71.63C421.6 69.48 421.14 66.9 421.15 63.89C421.15 60.88 421.63 58.32 422.56 56.22C423.5 54.11 424.83 52.5 426.56 51.4C428.29 50.29 430.36 49.74 432.76 49.74C435.16 49.74 437.22 50.29 438.96 51.4C440.71 52.5 442.05 54.11 442.99 56.22C443.93 58.33 444.39 60.89 444.39 63.89C444.39 66.91 443.92 69.5 442.98 71.64C442.04 73.79 440.7 75.43 438.97 76.56C437.25 77.69 435.18 78.25 432.77 78.25H432.75ZM432.75 72.82C434.18 72.82 435.34 72.09 436.23 70.63C437.11 69.16 437.55 66.91 437.54 63.88C437.54 61.89 437.34 60.26 436.94 58.97C436.54 57.67 435.98 56.71 435.26 56.07C434.54 55.43 433.71 55.12 432.75 55.12C431.33 55.12 430.18 55.84 429.3 57.28C428.42 58.71 427.98 60.91 427.97 63.88C427.97 65.89 428.15 67.56 428.55 68.88C428.95 70.2 429.52 71.19 430.24 71.85C430.96 72.49 431.8 72.82 432.75 72.82Z" fill="#562E8A"/>
<path d="M56.43 7.56L67.85 0L67.52 14.79L56.43 7.56Z" fill="#9363A9"/>
<path d="M0 65.43L61.25 31.67V43.25L23.15 65.92V80.39L0 65.43Z" fill="#9464AA"/>
<path d="M73.31 37.46L61.25 31.67V43.25L73.31 37.46Z" fill="#562E8A"/>
<path d="M72.71 96.3L23.27 67.85L23.15 80.39L62.06 103.05" fill="#562E8A"/>
<path d="M67.85 0L130.39 37.78L107.4 50.48L106.75 36.98L67.52 14.79L67.85 0Z" fill="#562E8A"/>
<path d="M107.07 37.62L107.4 50.48L79.1 66.56L78.94 79.58L55.47 65.76L107.07 37.62Z" fill="#9164AA"/>
<path d="M79.1 66.56L78.94 79.58L107.24 96.62V110.61L131.03 95.82L79.1 66.56Z" fill="#562E8A"/>
<path d="M56.27 125.88L67.85 133.76L107.24 110.61V96.62L56.27 125.88Z" fill="#9363A9"/>
</g>
<defs>
<clipPath id="clip0_12_2">
<rect width="444.37" height="133.76" fill="white"/>
</clipPath>
</defs>
</svg>
