<svg width="61" height="67" viewBox="0 0 61 67" fill="none" xmlns="http://www.w3.org/2000/svg">
<g clip-path="url(#clip0_2_2)">
<path d="M60.3301 36.44C60.3001 52 48.6101 64.74 33.7601 66C33.7601 66 14.6901 66.49 8.37009 65.93C7.21523 65.7887 6.11837 65.3441 5.19099 64.6416C4.2636 63.939 3.53874 63.0034 3.09009 61.93C3.96852 62.3573 4.91724 62.6216 5.89009 62.71C7.96009 62.89 11.4901 62.98 16.4101 62.98C23.6401 62.98 31.4801 62.78 31.5601 62.78H31.7001C39.5634 62.1058 46.8735 58.4579 52.1401 52.58C56.6481 47.5916 59.4959 41.3265 60.2901 34.65C60.3201 35.22 60.3301 35.83 60.3301 36.44Z" fill="white"/>
<path d="M58 29.95C58 45.51 46.28 58.24 31.43 59.48C31.43 59.48 12.36 59.98 6.04004 59.42C2.65004 59.12 0.110039 55.87 0.0400391 52.28L0.100039 7.32997C0.200039 3.73997 2.75004 0.49997 6.15004 0.21997C12.48 -0.31003 31.54 0.27997 31.54 0.27997C46.38 1.59997 58 14.39 58 29.95Z" fill="white"/>
</g>
<defs>
<clipPath id="clip0_2_2">
<rect width="61" height="67.0009" fill="white" transform="translate(0 -0.000976562)"/>
</clipPath>
</defs>
</svg>
